<?xml version="1.0" standalone="no"?>
<!DOCTYPE svg PUBLIC "-//W3C//DTD SVG 20010904//EN"
 "http://www.w3.org/TR/2001/REC-SVG-20010904/DTD/svg10.dtd">
<svg version="1.0" xmlns="http://www.w3.org/2000/svg"
 width="472.000000pt" height="160.000000pt" viewBox="0 0 472.000000 160.000000"
 preserveAspectRatio="xMidYMid meet">

<g transform="translate(0.000000,160.000000) scale(0.100000,-0.100000)"
fill="#000000" stroke="none">
<path d="M525 1075 l-25 -24 0 -258 c0 -291 2 -303 65 -303 63 0 65 12 65 303
l0 258 -25 24 c-13 14 -31 25 -40 25 -9 0 -27 -11 -40 -25z"/>
<path d="M1119 1081 c-24 -19 -24 -20 -27 -278 -3 -293 0 -306 60 -311 66 -6
68 5 68 304 l0 263 -26 20 c-33 26 -45 26 -75 2z"/>
<path d="M376 1011 c-14 -16 -16 -43 -14 -227 l3 -208 28 -16 c24 -13 30 -13
55 0 l27 16 3 208 c3 230 -1 246 -58 246 -15 0 -34 -8 -44 -19z"/>
<path d="M1257 1012 c-15 -16 -17 -47 -17 -220 0 -189 1 -203 20 -222 25 -25
51 -25 81 -1 24 19 24 21 24 219 0 183 -2 202 -19 221 -23 26 -67 27 -89 3z"/>
<path d="M1747 976 c-50 -19 -76 -42 -98 -91 -37 -80 -15 -195 46 -243 38 -30
100 -45 154 -37 80 12 81 14 81 120 l0 95 -70 0 -70 0 0 -30 c0 -28 3 -30 36
-30 l35 0 -3 -47 -3 -48 -41 -3 c-56 -4 -100 38 -110 104 -8 53 16 126 49 149
27 19 97 19 142 1 l35 -15 0 29 c0 19 -7 33 -21 40 -34 19 -120 22 -162 6z"/>
<path d="M2737 974 c-4 -4 -7 -85 -7 -180 0 -198 -8 -184 104 -184 76 0 97 10
89 41 -5 16 -15 19 -64 19 l-58 0 -3 153 -3 152 -25 3 c-14 2 -29 0 -33 -4z"/>
<path d="M1060 870 c0 -18 -9 -19 -191 -22 -181 -3 -192 -2 -205 17 -12 17
-14 8 -13 -75 0 -67 3 -88 9 -72 9 22 12 22 200 22 188 0 191 0 200 -22 6 -16
9 6 9 75 1 53 -1 97 -4 97 -3 0 -5 -9 -5 -20z"/>
<path d="M2362 865 c-29 -24 -30 -25 -35 -4 -4 15 -12 20 -29 17 -22 -3 -23
-6 -26 -127 -1 -70 2 -129 7 -134 5 -5 21 -7 35 -3 25 6 26 8 26 95 0 72 3 91
18 104 10 10 25 17 33 17 31 0 39 -24 39 -109 0 -97 7 -114 41 -109 23 3 24 7
27 93 3 97 16 125 58 125 33 0 38 -14 44 -120 5 -93 5 -95 30 -95 25 0 25 0
28 105 2 66 -2 113 -9 127 -25 46 -98 53 -135 12 -16 -18 -17 -18 -46 6 -37
32 -69 32 -106 0z"/>
<path d="M3053 883 c-40 -8 -81 -59 -89 -110 -14 -91 31 -159 112 -169 81 -10
143 51 145 143 3 105 -61 157 -168 136z m80 -68 c50 -49 20 -155 -44 -155 -36
0 -59 33 -59 85 0 53 23 85 60 85 16 0 35 -7 43 -15z"/>
<path d="M3323 874 c-40 -20 -59 -63 -45 -103 8 -22 7 -39 -1 -61 -9 -23 -9
-35 0 -49 9 -15 9 -23 -2 -37 -34 -46 -10 -95 53 -109 85 -18 172 24 172 83 0
42 -28 62 -101 70 -49 5 -65 11 -67 25 -3 14 4 17 43 17 38 0 52 5 77 30 23
24 29 36 24 55 -5 18 -2 25 9 25 10 0 15 10 15 30 0 28 -3 30 -37 30 -21 0
-54 3 -73 5 -22 4 -47 -1 -67 -11z m88 -55 c18 -34 -4 -71 -38 -67 -34 4 -54
48 -33 72 18 23 57 20 71 -5z m17 -231 c-2 -19 -10 -24 -47 -26 -48 -4 -65 6
-55 31 5 13 19 17 56 17 46 0 49 -2 46 -22z"/>
<path d="M1975 868 c-3 -7 17 -69 43 -138 44 -115 47 -128 36 -155 -20 -46
-17 -65 9 -65 12 0 27 4 33 8 10 6 104 263 119 324 6 21 3 29 -10 34 -31 12
-49 -11 -76 -97 -16 -48 -29 -78 -33 -69 -3 8 -18 49 -34 90 -24 66 -31 75
-55 78 -16 2 -29 -2 -32 -10z"/>
<path d="M301 836 c-7 -8 -11 -32 -9 -53 2 -31 7 -39 26 -41 22 -3 23 -1 20
49 -3 54 -16 70 -37 45z"/>
<path d="M1387 843 c-4 -3 -7 -28 -7 -55 0 -41 3 -48 20 -48 24 0 37 26 34 64
-4 35 -30 57 -47 39z"/>
</g>
</svg>
